<?xml version="1.0" encoding="utf-8"?>
<!-- Generator: Adobe Illustrator 14.0.0, SVG Export Plug-In . SVG Version: 6.00 Build 43363)  -->
<!DOCTYPE svg PUBLIC "-//W3C//DTD SVG 1.1//EN" "http://www.w3.org/Graphics/SVG/1.1/DTD/svg11.dtd">
<svg version="1.1" xmlns="http://www.w3.org/2000/svg" xmlns:xlink="http://www.w3.org/1999/xlink" x="0px" y="0px" width="504px"
	 height="504px" viewBox="0 0 504 504" enable-background="new 0 0 504 504" xml:space="preserve">
<g id="Layer_7">
	<path fill="#CA992C" d="M207.218,371.15c0,0-4.819,7.009-17.085,17.085c0,0-14.895,14.457,2.629,12.705c0,0,9.2-9.2,9.2,2.19
		c0,0,2.19,11.39,10.952,0.438c0,0,4.381-7.009,6.571,0c0,0,3.943,12.705,9.638,3.067c0,0,4.819-10.076-6.571-30.667
		c-11.391-20.59,0,0,0,0S214.666,374.655,207.218,371.15"/>
	<path fill="#CA992C" d="M295.639,372.465c0,0,4.818,7.009,17.085,17.085c0,0,14.896,14.457-2.629,12.705c0,0-9.199-9.2-9.199,2.19
		c0,0-2.19,11.39-10.952,0.438c0,0-4.381-7.009-6.571,0c0,0-3.943,12.705-9.639,3.066c0,0-4.818-10.075,6.571-30.666
		c11.391-20.59,0,0,0,0S288.19,375.969,295.639,372.465"/>
</g>
<g id="Layer_2">
	<path fill="#2F1010" d="M201.894,131.415c0,0,51.223-20.22,97.054,0c0,0,27.138-31.002,62.186-22.825
		c0,0-28.038,36.214-25.701,54.906c0,0,0,29.207,9.346,53.74c0,0,36.215,75.934,1.168,117.991c0,0-28.037,47.899-92.29,43.226
		c0,0-106.31,7.011-110.982-93.458c0,0,0-11.686,11.683-54.908c0,0,21.028-49.065,7.01-86.449c0,0-14.019-32.711-23.365-33.879
		C138,109.758,174.664,99.333,201.894,131.415z"/>
</g>
<g id="Layer_6">
	<path fill="#999999" d="M201.084,228.92c0,0,18.692,7.009,32.711-11.099l14.603,23.949l13.435-23.949
		c0,0,17.522,18.691,36.215,13.435c0,0,10.516,86.451,49.651,95.212c0,0-17.525,53.737-91.708,53.737
		c0,0-70.094,5.843-102.22-51.401C153.771,328.805,197.579,300.184,201.084,228.92z"/>
</g>
<g id="Layer_5">
	<circle fill="#FFFFFF" cx="292.792" cy="189.783" r="41.472"/>
	<circle fill="#FFFFFF" cx="206.924" cy="189.2" r="41.472"/>
</g>
<g id="Layer_3">
	<circle fill="#009999" cx="213.351" cy="196.208" r="28.622"/>
	<circle fill="#009999" cx="285.198" cy="195.04" r="28.622"/>
</g>
<g id="Layer_4">
	<path fill="#640D0D" d="M251.902,311.279c0,0,14.017-23.366,25.116-12.852c0,0,7.01,7.594-5.841,25.701l-19.859,24.533
		l-20.444-22.78c0,0-14.603-21.612-4.088-28.622C226.786,297.26,233.21,286.746,251.902,311.279z"/>
	<circle fill="#640D0D" cx="275.27" cy="204.967" r="10.222"/>
	<path fill="#640D0D" d="M232.625,204.095c0,5.644-4.576,10.22-10.222,10.22s-10.221-4.576-10.221-10.22
		c0-5.647,4.576-10.223,10.221-10.223S232.625,198.447,232.625,204.095z"/>
</g>
</svg>
